<svg version="1.1" id="Layer_1" xmlns="http://www.w3.org/2000/svg" xmlns:xlink="http://www.w3.org/1999/xlink" x="0px" y="0px"
	 width="100%" viewBox="0 0 500 500" enable-background="new 0 0 500 500" xml:space="preserve">
<path fill="#121212" opacity="1.000000" stroke="none" 
	d="
M323.000000,501.000000 
	C215.333359,501.000000 108.166718,501.000000 1.000057,501.000000 
	C1.000038,334.333405 1.000038,167.666794 1.000019,1.000147 
	C167.666565,1.000098 334.333130,1.000098 500.999756,1.000049 
	C500.999847,167.666519 500.999847,334.333038 500.999939,500.999786 
	C441.833344,501.000000 382.666656,501.000000 323.000000,501.000000 
M273.404358,386.827942 
	C293.377350,413.530548 319.849792,426.661469 353.360748,425.394806 
	C400.411072,423.616333 439.698273,383.650452 439.921448,336.530060 
	C440.097626,299.319794 423.308655,271.648468 391.079590,253.309280 
	C391.079590,253.309280 391.144379,253.357880 391.180817,252.483307 
	C394.639069,222.209656 391.228088,192.826447 377.238708,165.569153 
	C347.265198,107.168007 299.297211,76.516403 233.375488,76.292290 
	C187.739258,76.137123 148.427872,93.424469 118.447563,127.556259 
	C73.328636,178.922958 64.854080,237.119003 91.708153,300.259613 
	C92.632034,302.431885 92.805573,305.480408 92.078079,307.712982 
	C83.326797,334.569275 74.370689,361.359192 65.382645,388.137756 
	C63.863876,392.662750 63.268829,396.848511 67.000076,400.644562 
	C70.870186,404.581909 75.148094,404.066437 79.898102,402.463013 
	C105.880836,393.692017 131.946976,385.166931 157.897293,376.302216 
	C162.314270,374.793396 165.864517,375.046143 170.138809,376.976227 
	C203.115295,391.866730 237.255646,394.925598 272.487854,386.526917 
	C272.487854,386.526917 272.766235,386.446045 273.404358,386.827942 
z"/>
<path fill="#FEFEFF" opacity="1.000000" stroke="none" 
	d="
M272.414093,386.243256 
	C237.255646,394.925598 203.115295,391.866730 170.138809,376.976227 
	C165.864517,375.046143 162.314270,374.793396 157.897293,376.302216 
	C131.946976,385.166931 105.880836,393.692017 79.898102,402.463013 
	C75.148094,404.066437 70.870186,404.581909 67.000076,400.644562 
	C63.268829,396.848511 63.863876,392.662750 65.382645,388.137756 
	C74.370689,361.359192 83.326797,334.569275 92.078079,307.712982 
	C92.805573,305.480408 92.632034,302.431885 91.708153,300.259613 
	C64.854080,237.119003 73.328636,178.922958 118.447563,127.556259 
	C148.427872,93.424469 187.739258,76.137123 233.375488,76.292290 
	C299.297211,76.516403 347.265198,107.168007 377.238708,165.569153 
	C391.228088,192.826447 394.639069,222.209656 390.804871,252.794128 
	C372.988556,244.311508 354.651520,241.167221 335.227814,243.788330 
	C281.945923,250.978424 245.660324,304.714203 259.798370,356.587677 
	C262.597046,366.856232 268.137848,376.377411 272.414093,386.243256 
z"/>
<path fill="#FEFEFE" opacity="1.000000" stroke="none" 
	d="
M391.085175,253.228500 
	C423.308655,271.648468 440.097626,299.319794 439.921448,336.530060 
	C439.698273,383.650452 400.411072,423.616333 353.360748,425.394806 
	C319.849792,426.661469 293.377350,413.530548 273.456238,386.587341 
	C274.765320,385.914886 276.015076,385.459503 277.280884,385.054565 
	C342.098969,364.319550 379.866028,320.233856 391.085175,253.228500 
z"/>
<path fill="#5372FF" opacity="1.000000" stroke="none" 
	d="
M391.082397,253.268890 
	C379.866028,320.233856 342.098969,364.319550 277.280884,385.054565 
	C276.015076,385.459503 274.765320,385.914886 273.137146,386.396362 
	C272.766235,386.446045 272.487854,386.526917 272.450989,386.385071 
	C268.137848,376.377411 262.597046,366.856232 259.798370,356.587677 
	C245.660324,304.714203 281.945923,250.978424 335.227814,243.788330 
	C354.651520,241.167221 372.988556,244.311508 390.786652,253.231415 
	C391.144379,253.357880 391.079590,253.309280 391.082397,253.268890 
z"/>
</svg>