<svg version="1.1" id="Layer_1" xmlns="http://www.w3.org/2000/svg" xmlns:xlink="http://www.w3.org/1999/xlink" x="0px" y="0px"
	 width="100%" viewBox="0 0 500 500" enable-background="new 0 0 500 500" xml:space="preserve">
<path fill="#121212" opacity="1.000000" stroke="none" 
	d="
M457.000000,501.000000 
	C304.666718,501.000000 152.833405,501.000000 1.000082,501.000000 
	C1.000054,334.333405 1.000054,167.666824 1.000027,1.000171 
	C167.666550,1.000114 334.333099,1.000114 500.999756,1.000057 
	C500.999817,167.666519 500.999817,334.333038 500.999908,500.999756 
	C486.500000,501.000000 472.000000,501.000000 457.000000,501.000000 
M162.423645,291.684784 
	C169.986710,301.182037 179.945953,304.162415 191.354385,301.198212 
	C201.059784,298.676483 207.611420,292.037506 209.847168,282.189880 
	C212.564240,270.222107 208.935486,260.284637 198.762680,252.934097 
	C197.632141,252.117218 197.203903,250.328400 196.787109,248.140152 
	C196.619583,245.431030 196.452057,242.721924 196.501251,239.518555 
	C196.297302,239.026138 196.093353,238.533722 196.007019,237.265961 
	C195.826294,236.514389 195.645584,235.762802 195.540375,234.480133 
	C195.304947,234.006622 195.069519,233.533127 194.886505,232.313126 
	C187.051697,207.140335 161.280258,193.123306 134.596115,202.423370 
	C109.452026,211.186691 98.050026,238.561707 107.953590,264.213257 
	C108.536400,265.722809 108.491035,267.762115 108.020370,269.341003 
	C106.077225,275.859406 103.748131,282.262787 101.806496,288.781616 
	C101.231689,290.711456 101.462273,292.881195 101.323807,294.940979 
	C103.349686,294.883362 105.504234,295.253876 107.378143,294.690643 
	C113.916092,292.725647 120.318680,290.309174 126.860580,288.359100 
	C128.588760,287.843903 130.839172,287.870880 132.497787,288.531982 
	C141.925232,292.289642 151.500641,293.233643 161.435562,291.116791 
	C161.435562,291.116791 161.691620,291.248413 161.691620,291.248413 
	C161.691620,291.248413 161.945374,291.112885 162.423645,291.684784 
M239.855606,253.779327 
	C239.623581,249.893311 240.433029,246.394531 245.131424,246.480698 
	C250.121201,246.572205 249.288437,250.707932 249.340485,253.937256 
	C249.409393,258.214569 249.357452,262.493805 249.357452,266.795715 
	C252.194504,266.795715 254.459335,266.795715 257.110077,266.795715 
	C257.110077,261.625488 256.997375,256.666168 257.149628,251.715012 
	C257.251373,248.404739 259.189911,246.368332 262.536316,246.432831 
	C265.946869,246.498566 266.862823,248.963181 266.856537,251.952881 
	C266.846130,256.888336 266.853729,261.823853 266.853729,266.800415 
	C269.589111,266.800415 271.858124,266.800415 274.508911,266.800415 
	C274.508911,261.624146 274.528687,256.656342 274.495728,251.688889 
	C274.486938,250.362534 274.409271,249.022919 274.205811,247.713837 
	C272.976044,239.801331 265.639008,236.530518 258.919067,240.896179 
	C257.826233,241.606140 256.833191,242.469681 255.819534,243.242752 
	C249.893570,237.762939 246.861404,237.557770 240.444717,242.101196 
	C238.675629,237.627640 235.257462,239.864029 232.333984,239.776886 
	C232.333984,248.997467 232.333984,257.897919 232.333984,266.793762 
	C234.889542,266.793762 237.154968,266.793762 239.855148,266.793762 
	C239.855148,262.629395 239.855148,258.675812 239.855606,253.779327 
M323.325531,240.883453 
	C322.509583,241.189133 321.527649,241.947845 320.907013,241.720428 
	C318.487885,240.834000 316.183228,239.635071 313.106079,238.215652 
	C313.106079,252.691757 313.106079,265.625641 313.106079,278.705841 
	C315.499603,278.705841 317.779724,278.705841 320.788513,278.705841 
	C320.788513,273.883453 320.788513,269.240631 320.788513,264.198303 
	C328.167023,268.690948 333.251251,268.472809 337.675232,263.949219 
	C342.574371,258.939758 343.248230,250.560287 339.232422,244.584930 
	C335.643402,239.244553 330.409637,237.816971 323.325531,240.883453 
M281.368652,260.875671 
	C285.634552,268.651245 290.706543,269.656342 296.761871,265.445160 
	C300.914276,266.253082 303.650665,266.785492 306.627869,267.364746 
	C306.627869,257.551636 306.627869,248.786880 306.627869,239.791641 
	C304.015747,239.791641 301.627899,239.791641 299.031860,239.791641 
	C299.031860,244.121490 299.051300,248.111801 299.027161,252.101852 
	C298.993378,257.683868 297.133362,260.253662 293.125031,260.076782 
	C288.011536,259.851166 288.253052,256.013550 288.217438,252.468979 
	C288.174652,248.209503 288.207336,243.949249 288.207336,239.837646 
	C285.315643,239.837646 283.083130,239.837646 281.116211,239.837646 
	C281.116211,246.859909 281.116211,253.491837 281.368652,260.875671 
M400.368103,243.261368 
	C393.709442,237.103302 386.149536,237.474365 379.785522,244.522827 
	C381.087830,245.912094 382.401855,247.313828 383.723083,248.723236 
	C387.676086,246.102234 391.216156,243.880814 395.136261,249.113815 
	C391.318787,249.879395 388.059174,250.333466 384.916870,251.208771 
	C379.851257,252.619812 377.088715,257.431305 378.495575,261.929199 
	C379.936859,266.537231 384.757629,268.786530 389.822266,267.036285 
	C391.490570,266.459747 392.993042,265.403381 394.530457,264.588074 
	C396.301941,269.127228 399.692291,266.385956 403.689636,266.996979 
	C402.676941,258.783142 401.757019,251.321838 400.368103,243.261368 
M356.693268,239.963409 
	C356.313507,237.300018 355.933716,234.636627 355.567871,232.070862 
	C353.357300,232.070862 351.311188,232.070862 349.294067,232.070862 
	C348.901703,239.331833 348.901703,239.331833 343.751404,240.759552 
	C343.751404,242.699615 343.751404,244.653015 343.751404,246.836777 
	C345.261871,247.052597 346.632111,247.248383 348.218933,247.475113 
	C348.218933,250.752380 348.145691,253.726685 348.232574,256.696320 
	C348.499603,265.821777 353.641022,269.364899 362.565704,266.501282 
	C362.565704,264.450500 362.565704,262.363922 362.565704,260.298828 
	C355.583923,259.803497 354.387909,257.045044 356.691101,247.293289 
	C358.433228,247.147141 360.175385,247.000992 361.807739,246.864059 
	C361.807739,244.435715 361.807739,242.364838 361.807739,240.029465 
	C360.215149,240.029465 358.914215,240.029465 356.693268,239.963409 
M416.602600,250.536194 
	C416.602600,246.949387 416.602600,243.362579 416.602600,239.684723 
	C413.682770,239.684723 411.443176,239.684723 409.034912,239.684723 
	C409.034912,248.863327 409.034912,257.777405 409.034912,266.711304 
	C411.536499,266.711304 413.922638,266.711304 416.218292,266.711304 
	C416.392365,266.076752 416.550903,265.764740 416.552826,265.451782 
	C416.581573,260.808136 416.589630,256.164368 416.602600,250.536194 
M368.328644,267.060852 
	C370.331360,266.500549 372.832123,266.457397 374.151184,265.187195 
	C374.950043,264.417938 374.497101,261.287354 373.531036,260.074188 
	C372.722198,259.058472 369.983154,258.513489 368.744293,259.107178 
	C365.069122,260.868378 365.054596,263.728607 368.328644,267.060852 
M411.886658,227.583771 
	C410.674286,229.128876 408.955078,230.532898 408.468719,232.280090 
	C408.234344,233.122070 410.130676,235.234512 411.413727,235.629395 
	C412.675262,236.017593 414.766479,235.390366 415.817413,234.451675 
	C418.449127,232.100967 416.977051,229.093414 411.886658,227.583771 
z"/>
<path fill="#FDFDFD" opacity="1.000000" stroke="none" 
	d="
M161.381439,290.830933 
	C151.500641,293.233643 141.925232,292.289642 132.497787,288.531982 
	C130.839172,287.870880 128.588760,287.843903 126.860580,288.359100 
	C120.318680,290.309174 113.916092,292.725647 107.378143,294.690643 
	C105.504234,295.253876 103.349686,294.883362 101.323807,294.940979 
	C101.462273,292.881195 101.231689,290.711456 101.806496,288.781616 
	C103.748131,282.262787 106.077225,275.859406 108.020370,269.341003 
	C108.491035,267.762115 108.536400,265.722809 107.953590,264.213257 
	C98.050026,238.561707 109.452026,211.186691 134.596115,202.423370 
	C161.280258,193.123306 187.051697,207.140335 194.678070,232.841248 
	C194.801392,233.916656 195.133133,234.463943 195.464874,235.011230 
	C195.645584,235.762802 195.826294,236.514389 195.760956,237.792053 
	C195.771454,238.883026 196.027985,239.447922 196.284515,240.012802 
	C196.452057,242.721924 196.619583,245.431030 196.326935,248.673279 
	C195.506378,249.690170 195.146011,250.173920 194.392975,250.562866 
	C176.470016,245.112106 163.259384,252.158646 157.181778,270.058258 
	C156.954803,270.748779 156.958664,271.364899 156.997116,272.427734 
	C158.481613,278.859924 159.931534,284.845428 161.381439,290.830933 
z"/>
<path fill="#FAFAFB" opacity="1.000000" stroke="none" 
	d="
M194.785675,250.657684 
	C195.146011,250.173920 195.506378,249.690170 196.158356,249.098389 
	C197.203903,250.328400 197.632141,252.117218 198.762680,252.934097 
	C208.935486,260.284637 212.564240,270.222107 209.847168,282.189880 
	C207.611420,292.037506 201.059784,298.676483 191.354385,301.198212 
	C179.945953,304.162415 169.986710,301.182037 162.553711,291.195099 
	C179.423157,285.123108 190.746231,274.222961 195.365112,256.973022 
	C195.878143,255.057007 195.012131,252.771713 194.785675,250.657684 
z"/>
<path fill="#5574FF" opacity="1.000000" stroke="none" 
	d="
M194.392975,250.562866 
	C195.012131,252.771713 195.878143,255.057007 195.365112,256.973022 
	C190.746231,274.222961 179.423157,285.123108 162.314575,290.909149 
	C161.945374,291.112885 161.691620,291.248413 161.691620,291.248413 
	C161.691620,291.248413 161.435562,291.116791 161.408508,290.973877 
	C159.931534,284.845428 158.481613,278.859924 157.173904,272.221710 
	C157.348267,271.040619 157.380447,270.512268 157.412613,269.983887 
	C163.259384,252.158646 176.470016,245.112106 194.392975,250.562866 
z"/>
<path fill="#F6F6F6" opacity="1.000000" stroke="none" 
	d="
M239.855377,254.250793 
	C239.855148,258.675812 239.855148,262.629395 239.855148,266.793762 
	C237.154968,266.793762 234.889542,266.793762 232.333984,266.793762 
	C232.333984,257.897919 232.333984,248.997467 232.333984,239.776886 
	C235.257462,239.864029 238.675629,237.627640 240.446289,242.094833 
	C246.861404,237.557770 249.893570,237.762939 255.819534,243.242752 
	C256.833191,242.469681 257.826233,241.606140 258.919067,240.896179 
	C265.639008,236.530518 272.976044,239.801331 274.205811,247.713837 
	C274.409271,249.022919 274.486938,250.362534 274.495728,251.688889 
	C274.528687,256.656342 274.508911,261.624146 274.508911,266.800415 
	C271.858124,266.800415 269.589111,266.800415 266.853729,266.800415 
	C266.853729,261.823853 266.846130,256.888336 266.856537,251.952881 
	C266.862823,248.963181 265.946869,246.498566 262.536316,246.432831 
	C259.189911,246.368332 257.251373,248.404739 257.149628,251.715012 
	C256.997375,256.666168 257.110077,261.625488 257.110077,266.795715 
	C254.459335,266.795715 252.194504,266.795715 249.357452,266.795715 
	C249.357452,262.493805 249.409393,258.214569 249.340485,253.937256 
	C249.288437,250.707932 250.121201,246.572205 245.131424,246.480698 
	C240.433029,246.394531 239.623581,249.893311 239.855377,254.250793 
z"/>
<path fill="#F5F5F5" opacity="1.000000" stroke="none" 
	d="
M323.663391,240.656921 
	C330.409637,237.816971 335.643402,239.244553 339.232422,244.584930 
	C343.248230,250.560287 342.574371,258.939758 337.675232,263.949219 
	C333.251251,268.472809 328.167023,268.690948 320.788513,264.198303 
	C320.788513,269.240631 320.788513,273.883453 320.788513,278.705841 
	C317.779724,278.705841 315.499603,278.705841 313.106079,278.705841 
	C313.106079,265.625641 313.106079,252.691757 313.106079,238.215652 
	C316.183228,239.635071 318.487885,240.834000 320.907013,241.720428 
	C321.527649,241.947845 322.509583,241.189133 323.663391,240.656921 
M333.140076,249.636047 
	C328.786407,244.877365 323.011810,244.798752 321.271484,249.930267 
	C320.435974,252.393951 321.098602,256.346710 322.692413,258.334473 
	C323.908295,259.850891 328.023193,260.319366 330.200470,259.510315 
	C334.169189,258.035583 334.775909,254.272690 333.140076,249.636047 
z"/>
<path fill="#F5F5F5" opacity="1.000000" stroke="none" 
	d="
M281.242432,260.499725 
	C281.116211,253.491837 281.116211,246.859909 281.116211,239.837646 
	C283.083130,239.837646 285.315643,239.837646 288.207336,239.837646 
	C288.207336,243.949249 288.174652,248.209503 288.217438,252.468979 
	C288.253052,256.013550 288.011536,259.851166 293.125031,260.076782 
	C297.133362,260.253662 298.993378,257.683868 299.027161,252.101852 
	C299.051300,248.111801 299.031860,244.121490 299.031860,239.791641 
	C301.627899,239.791641 304.015747,239.791641 306.627869,239.791641 
	C306.627869,248.786880 306.627869,257.551636 306.627869,267.364746 
	C303.650665,266.785492 300.914276,266.253082 296.761871,265.445160 
	C290.706543,269.656342 285.634552,268.651245 281.242432,260.499725 
z"/>
<path fill="#F5F5F5" opacity="1.000000" stroke="none" 
	d="
M400.602600,243.560944 
	C401.757019,251.321838 402.676941,258.783142 403.689636,266.996979 
	C399.692291,266.385956 396.301941,269.127228 394.530457,264.588074 
	C392.993042,265.403381 391.490570,266.459747 389.822266,267.036285 
	C384.757629,268.786530 379.936859,266.537231 378.495575,261.929199 
	C377.088715,257.431305 379.851257,252.619812 384.916870,251.208771 
	C388.059174,250.333466 391.318787,249.879395 395.136261,249.113815 
	C391.216156,243.880814 387.676086,246.102234 383.723083,248.723236 
	C382.401855,247.313828 381.087830,245.912094 379.785522,244.522827 
	C386.149536,237.474365 393.709442,237.103302 400.602600,243.560944 
M388.598663,261.176880 
	C392.678009,261.403595 394.503510,259.212799 395.050964,254.738953 
	C392.521576,255.233032 390.204865,255.331894 388.191681,256.164612 
	C385.413147,257.313873 384.738434,259.156586 388.598663,261.176880 
z"/>
<path fill="#F6F6F6" opacity="1.000000" stroke="none" 
	d="
M357.153259,239.996429 
	C358.914215,240.029465 360.215149,240.029465 361.807739,240.029465 
	C361.807739,242.364838 361.807739,244.435715 361.807739,246.864059 
	C360.175385,247.000992 358.433228,247.147141 356.690674,247.295563 
	C354.387909,257.045044 355.583923,259.803497 362.565704,260.298828 
	C362.565704,262.363922 362.565704,264.450500 362.565704,266.501282 
	C353.641022,269.364899 348.499603,265.821777 348.232574,256.696320 
	C348.145691,253.726685 348.218933,250.752380 348.218933,247.475113 
	C346.632111,247.248383 345.261871,247.052597 343.751404,246.836777 
	C343.751404,244.653015 343.751404,242.699615 343.751404,240.759552 
	C348.901703,239.331833 348.901703,239.331833 349.294067,232.070862 
	C351.311188,232.070862 353.357300,232.070862 355.567871,232.070862 
	C355.933716,234.636627 356.313507,237.300018 357.153259,239.996429 
z"/>
<path fill="#EDEDED" opacity="1.000000" stroke="none" 
	d="
M416.602600,251.028412 
	C416.589630,256.164368 416.581573,260.808136 416.552826,265.451782 
	C416.550903,265.764740 416.392365,266.076752 416.218292,266.711304 
	C413.922638,266.711304 411.536499,266.711304 409.034912,266.711304 
	C409.034912,257.777405 409.034912,248.863327 409.034912,239.684723 
	C411.443176,239.684723 413.682770,239.684723 416.602600,239.684723 
	C416.602600,243.362579 416.602600,246.949387 416.602600,251.028412 
z"/>
<path fill="#F5F5F5" opacity="1.000000" stroke="none" 
	d="
M368.000671,266.873596 
	C365.054596,263.728607 365.069122,260.868378 368.744293,259.107178 
	C369.983154,258.513489 372.722198,259.058472 373.531036,260.074188 
	C374.497101,261.287354 374.950043,264.417938 374.151184,265.187195 
	C372.832123,266.457397 370.331360,266.500549 368.000671,266.873596 
z"/>
<path fill="#EDEDED" opacity="1.000000" stroke="none" 
	d="
M412.242371,227.516769 
	C416.977051,229.093414 418.449127,232.100967 415.817413,234.451675 
	C414.766479,235.390366 412.675262,236.017593 411.413727,235.629395 
	C410.130676,235.234512 408.234344,233.122070 408.468719,232.280090 
	C408.955078,230.532898 410.674286,229.128876 412.242371,227.516769 
z"/>
<path fill="#FAFAFB" opacity="1.000000" stroke="none" 
	d="
M195.502625,234.745682 
	C195.133133,234.463943 194.801392,233.916656 194.651855,233.214508 
	C195.069519,233.533127 195.304947,234.006622 195.502625,234.745682 
z"/>
<path fill="#FAFAFB" opacity="1.000000" stroke="none" 
	d="
M196.392883,239.765686 
	C196.027985,239.447922 195.771454,238.883026 195.702148,238.179718 
	C196.093353,238.533722 196.297302,239.026138 196.392883,239.765686 
z"/>
<path fill="#F5F5F5" opacity="1.000000" stroke="none" 
	d="
M157.181778,270.058258 
	C157.380447,270.512268 157.348267,271.040619 157.139313,271.775024 
	C156.958664,271.364899 156.954803,270.748779 157.181778,270.058258 
z"/>
<path fill="#1A1A1A" opacity="1.000000" stroke="none" 
	d="
M333.330475,249.986725 
	C334.775909,254.272690 334.169189,258.035583 330.200470,259.510315 
	C328.023193,260.319366 323.908295,259.850891 322.692413,258.334473 
	C321.098602,256.346710 320.435974,252.393951 321.271484,249.930267 
	C323.011810,244.798752 328.786407,244.877365 333.330475,249.986725 
z"/>
<path fill="#1A1A1A" opacity="1.000000" stroke="none" 
	d="
M388.193604,261.112183 
	C384.738434,259.156586 385.413147,257.313873 388.191681,256.164612 
	C390.204865,255.331894 392.521576,255.233032 395.050964,254.738953 
	C394.503510,259.212799 392.678009,261.403595 388.193604,261.112183 
z"/>
</svg>